<svg width="437" height="142" viewBox="0 0 437 142" fill="none" xmlns="http://www.w3.org/2000/svg">
<path d="M332.456 141.681C325.376 141.681 318.848 142.034 312.873 138.397C306.962 134.759 302.188 129.92 298.551 123.88C294.979 117.774 293.192 111.084 293.192 103.81L293.387 38.407C293.387 31.0025 295.173 24.3449 298.746 18.4342C302.253 12.4586 306.995 7.68464 312.97 4.11227C318.946 0.474946 325.441 0.828074 332.456 0.828074C339.731 0.828074 346.258 0.44247 352.039 4.01484C357.885 7.58721 362.561 12.3937 366.069 18.4342C369.641 24.4098 371.427 31.0674 371.427 38.407L371.622 103.81C371.622 111.084 369.868 117.742 366.361 123.783C362.789 129.888 358.047 134.759 352.136 138.397C346.226 142.034 339.666 141.681 332.456 141.681ZM332.456 117.616C336.483 117.616 339.99 118.164 342.978 114.917C345.966 111.604 347.46 107.902 347.46 103.81L347.265 38.407C347.265 33.9903 345.869 30.2555 343.076 27.2028C340.283 24.15 336.743 24.7954 332.456 24.7954C328.364 24.7954 324.857 24.1175 321.934 27.1053C319.011 30.0931 317.549 33.8604 317.549 38.407V103.81C317.549 108.162 319.011 111.929 321.934 115.111C324.857 118.229 328.364 117.616 332.456 117.616Z" fill="url(#paint0_linear_1102_67)"/>
<path d="M288.972 141.903H237.505C236.985 141.903 236.726 141.578 236.726 140.929L236.92 1.87028C236.92 1.22076 237.245 0.895996 237.895 0.895996H259.641C260.29 0.895996 260.615 1.22076 260.615 1.87028L260.42 118.1H288.972C289.621 118.1 289.946 118.425 289.946 119.075V140.929C289.946 141.578 289.621 141.903 288.972 141.903Z" fill="url(#paint1_linear_1102_67)"/>
<path d="M388.74 31.2293C387.168 31.2293 385.718 30.83 384.391 30.0314C383.078 29.2328 382.025 28.1704 381.232 26.8442C380.453 25.5037 380.063 24.0349 380.063 22.4377V20.427C380.063 20.2701 380.136 20.1917 380.28 20.1917H385.256C385.372 20.1917 385.429 20.2701 385.429 20.427V22.4377C385.429 23.3931 385.754 24.2203 386.403 24.919C387.052 25.6035 387.831 25.9458 388.74 25.9458C389.663 25.9458 390.449 25.5964 391.098 24.8976C391.747 24.1846 391.59 23.3646 391.59 22.4377C391.59 21.3682 391.365 20.9109 389.951 20.1123C389.721 19.9697 389.418 19.7986 389.043 19.599C388.682 19.3851 388.249 19.1426 387.745 18.8717C387.24 18.6007 386.749 18.3369 386.273 18.0802C385.797 17.8093 385.336 17.5526 384.888 17.3102C383.273 16.369 382.068 15.1925 381.275 13.7807C380.496 12.3547 380.107 11.2343 380.107 9.46604C380.107 7.84035 380.511 6.37152 381.318 5.05957C382.126 3.76187 383.179 2.73512 384.477 1.97931C385.79 1.20925 387.211 0.824219 388.74 0.824219C390.312 0.824219 391.755 1.20925 393.067 1.97931C394.38 2.76364 395.426 3.80465 396.204 5.10235C396.998 6.40005 397.395 7.85461 397.395 9.46604V13.0597C397.395 13.1737 397.337 13.2308 397.221 13.2308L392.245 13.2308C392.13 13.2308 392.072 13.1737 392.072 13.0597L392.029 9.46604C392.029 8.43929 391.704 7.60505 391.055 6.96333C390.406 6.32161 389.634 6.00075 388.74 6.00075C387.831 6.00075 387.052 6.343 386.403 7.0275C385.754 7.712 385.912 8.52485 385.912 9.46604C385.912 10.4215 386.114 11.2201 386.518 11.8618C386.936 12.5035 387.211 12.6399 388.307 13.2246C388.422 13.2816 388.689 13.4242 389.108 13.6524C389.526 13.8805 389.988 14.1372 390.492 14.4224C391.012 14.6934 391.48 14.9429 391.899 15.1711C392.317 15.385 392.57 15.5134 392.656 15.5561C394.127 16.369 395.289 17.3672 396.14 18.5508C397.005 19.7344 397.438 20.7122 397.438 22.4377C397.438 24.1062 397.048 25.6035 396.269 26.9297C395.476 28.256 394.423 29.3041 393.11 30.0742C391.798 30.8442 390.341 31.2293 388.74 31.2293Z" fill="white"/>
<path d="M416.502 31.2292H410.366C410.253 31.2292 410.197 31.1581 410.197 31.0159L410.282 0.994914C410.282 0.881117 410.338 0.824219 410.45 0.824219H415.716C415.828 0.824219 415.926 0.881117 416.011 0.994914L419.97 5.16779L423.867 0.994914C423.951 0.881117 424.056 0.824219 424.183 0.824219H429.47C429.596 0.824219 429.659 0.881117 429.659 0.994914L429.743 31.0159C429.743 31.1581 429.687 31.2292 429.575 31.2292H423.439C423.326 31.2292 423.27 31.1581 423.27 31.0159L423.228 9.51137L419.97 16.0267L416.713 9.51137L416.671 31.0159C416.671 31.1581 416.614 31.2292 416.502 31.2292Z" fill="white"/>
<path d="M403.336 31.3423H397.982C397.858 31.3423 397.797 31.2808 397.797 31.1577V25.8033C397.797 25.6802 397.858 25.6187 397.982 25.6187H403.336C403.459 25.6187 403.521 25.6802 403.521 25.8033V31.1577C403.521 31.2808 403.459 31.3423 403.336 31.3423Z" fill="#F03880"/>
<path d="M436.725 31.3423H431.37C431.247 31.3423 431.186 31.2808 431.186 31.1577V25.8033C431.186 25.6802 431.247 25.6187 431.37 25.6187H436.725C436.848 25.6187 436.909 25.6802 436.909 25.8033V31.1577C436.909 31.2808 436.848 31.3423 436.725 31.3423Z" fill="#F03880"/>
<path d="M191.093 141.678C184.078 141.678 177.583 142.031 171.607 138.394C165.632 134.757 160.858 129.885 157.286 123.78C153.778 117.609 152.024 110.887 152.024 103.612L152.414 1.67396C152.414 1.15434 152.674 0.894531 153.194 0.894531H175.135C175.654 0.894531 175.914 1.15434 175.914 1.67396V103.612C175.914 108.094 177.343 111.926 180.201 115.109C183.059 118.227 187.001 118.099 191.093 118.099C195.38 118.099 199.174 118.229 202.032 115.111C204.89 111.928 206.319 108.096 206.319 103.614V1.67608C206.319 1.15646 206.579 0.896652 207.099 0.896652L229.285 0.894531C229.805 0.894531 230.064 1.15434 230.064 1.67396L230.454 103.612C230.454 110.952 228.7 117.707 225.193 123.877C221.621 129.983 216.879 134.854 210.969 138.492C205.058 142.064 198.433 141.678 191.093 141.678Z" fill="url(#paint2_linear_1102_67)"/>
<path d="M70.1875 140.929L94.9343 1.67542C95.0642 1.1558 95.3889 0.895996 95.9086 0.895996H124.845C125.364 0.895996 125.689 1.1558 125.819 1.67542L149.591 140.929C149.656 141.578 149.397 141.903 148.812 141.903H126.696C126.046 141.903 125.689 141.578 125.624 140.929L123.481 126.788H96.2983L94.1548 140.929C94.0899 141.578 93.7651 141.903 93.1806 141.903H70.9669C70.4473 141.903 70.1875 141.578 70.1875 140.929ZM99.0008 108.854H120.778L110.133 50.2523L99.0008 108.854Z" fill="url(#paint3_linear_1102_67)"/>
<path d="M22.9154 141.916H0.974282C0.324761 141.916 0 141.591 0 140.941L0.0254506 1.67542C0.0254506 1.1558 0.285259 0.895996 0.804877 0.895996L39.5559 0.908721C51.7669 0.908721 61.4123 4.64347 68.4921 12.113C75.6368 19.5175 79.2092 29.6176 79.2092 42.4132C79.2092 51.7663 77.358 59.9178 73.6557 66.8676C69.8885 73.7526 65.0171 79.0787 59.0415 82.8459C53.0659 86.6131 46.5707 88.4967 39.5559 88.4967H23.8897V140.941C23.8897 141.591 23.5649 141.916 22.9154 141.916ZM39.5559 24.5838L23.8897 24.7786V64.3345H39.5559C43.7778 64.3345 47.4475 62.321 50.5653 58.294C53.683 54.202 54.2947 48.5958 54.2947 42.1006C54.2947 36.9044 53.8453 32.9626 51.0524 29.6501C48.2595 26.2725 44.4273 24.5838 39.5559 24.5838Z" fill="url(#paint4_linear_1102_67)"/>
<path d="M388.74 31.2293C387.168 31.2293 385.718 30.83 384.391 30.0314C383.078 29.2328 382.025 28.1704 381.232 26.8442C380.453 25.5037 380.063 24.0349 380.063 22.4377V20.427C380.063 20.2701 380.136 20.1917 380.28 20.1917H385.256C385.372 20.1917 385.429 20.2701 385.429 20.427V22.4377C385.429 23.3931 385.754 24.2203 386.403 24.919C387.052 25.6035 387.831 25.9458 388.74 25.9458C389.663 25.9458 390.449 25.5964 391.098 24.8976C391.747 24.1846 391.59 23.3646 391.59 22.4377C391.59 21.3682 391.365 20.9109 389.951 20.1123C389.721 19.9697 389.418 19.7986 389.043 19.599C388.682 19.3851 388.249 19.1426 387.745 18.8717C387.24 18.6007 386.749 18.3369 386.273 18.0802C385.797 17.8093 385.336 17.5526 384.888 17.3102C383.273 16.369 382.068 15.1925 381.275 13.7807C380.496 12.3547 380.107 11.2343 380.107 9.46604C380.107 7.84035 380.511 6.37152 381.318 5.05957C382.126 3.76187 383.179 2.73512 384.477 1.97931C385.79 1.20925 387.211 0.824219 388.74 0.824219C390.312 0.824219 391.755 1.20925 393.067 1.97931C394.38 2.76364 395.426 3.80465 396.204 5.10235C396.998 6.40005 397.395 7.85461 397.395 9.46604V13.0597C397.395 13.1737 397.337 13.2308 397.221 13.2308L392.245 13.2308C392.13 13.2308 392.072 13.1737 392.072 13.0597L392.029 9.46604C392.029 8.43929 391.704 7.60505 391.055 6.96333C390.406 6.32161 389.634 6.00075 388.74 6.00075C387.831 6.00075 387.052 6.343 386.403 7.0275C385.754 7.712 385.912 8.52485 385.912 9.46604C385.912 10.4215 386.114 11.2201 386.518 11.8618C386.936 12.5035 387.211 12.6399 388.307 13.2246C388.422 13.2816 388.689 13.4242 389.108 13.6524C389.526 13.8805 389.988 14.1372 390.492 14.4224C391.012 14.6934 391.48 14.9429 391.899 15.1711C392.317 15.385 392.57 15.5134 392.656 15.5561C394.127 16.369 395.289 17.3672 396.14 18.5508C397.005 19.7344 397.438 20.7122 397.438 22.4377C397.438 24.1062 397.048 25.6035 396.269 26.9297C395.476 28.256 394.423 29.3041 393.11 30.0742C391.798 30.8442 390.341 31.2293 388.74 31.2293Z" fill="white"/>
<path d="M380.063 125.692C380.063 122.744 380.81 120.025 382.303 117.537C383.796 115.076 385.782 113.102 388.262 111.614C390.768 110.154 393.514 109.423 396.5 109.423L401.487 109.414C401.78 109.414 401.927 109.549 401.927 109.82V119.948C401.927 120.165 401.78 120.273 401.487 120.273L396.5 120.282C394.714 120.282 393.167 120.891 391.861 122.108C390.581 123.325 389.941 123.988 389.941 125.692C389.941 127.422 390.595 128.896 391.901 130.114C393.234 131.331 394.767 131.035 396.5 131.035C398.5 131.035 399.354 130.614 400.847 127.963C401.114 127.531 401.434 126.963 401.807 126.259C402.207 125.583 402.66 124.772 403.167 123.825C403.673 122.879 404.167 121.959 404.647 121.067C405.153 120.174 405.633 119.309 406.086 118.47C407.846 115.441 410.045 113.183 412.685 111.695C415.351 110.235 417.446 109.505 420.752 109.505C423.791 109.505 426.537 110.262 428.99 111.776C431.416 113.291 433.336 115.265 434.749 117.699C436.188 120.161 436.908 122.825 436.908 125.692C436.908 128.64 436.188 131.344 434.749 133.805C433.282 136.266 431.336 138.227 428.91 139.688C426.484 141.175 423.764 141.919 420.752 141.919H413.167C412.953 141.919 412.847 141.811 412.847 141.595L412.858 131.483C412.858 131.266 412.965 131.158 413.178 131.158L420.763 131.077C422.683 131.077 424.242 130.469 425.442 129.252C426.642 128.034 427.242 126.587 427.23 125.692C427.23 123.988 426.59 122.527 425.311 121.31C424.031 120.093 422.27 120.282 420.511 120.282C418.724 120.282 417.472 120.767 416.273 121.525C415.073 122.309 414.818 122.825 413.725 124.88C413.618 125.097 413.351 125.597 412.925 126.381C412.498 127.166 412.018 128.031 411.485 128.978C410.979 129.951 410.512 130.83 410.085 131.615C409.686 132.399 409.446 132.872 409.366 133.035C407.846 135.793 405.98 137.97 403.767 139.566C401.554 141.189 399.726 142 396.5 142C393.381 142 390.581 141.27 388.102 139.81C385.622 138.322 383.663 136.348 382.223 133.886C380.783 131.425 380.063 128.694 380.063 125.692Z" fill="white"/>
<path d="M380.119 82.5764L380.063 75.3742C380.063 74.9541 380.25 74.744 380.622 74.744L436.27 74.6653C436.695 74.6653 436.908 74.8753 436.908 75.2954V83.3524L404.113 96.3832H436.27C436.695 96.3832 436.908 96.6195 436.908 97.0921V104.519C436.908 104.834 436.695 104.992 436.27 104.992L380.542 105.07C380.223 105.07 380.063 104.939 380.063 104.676L380.063 96.3832L410.672 83.3524L380.757 83.3248C380.332 83.3248 380.119 83.0753 380.119 82.5764Z" fill="white"/>
<path d="M380.063 56.8935L380.063 35.8913C380.063 35.6793 380.196 35.5732 380.462 35.5732L436.509 35.6528C436.775 35.6528 436.908 35.7853 436.908 36.0503V46.1141C436.908 46.3792 436.775 46.5117 436.509 46.5117L390.995 46.4322L390.995 56.8935C390.995 57.1586 390.862 57.2911 390.596 57.2911L380.462 57.2911C380.196 57.2911 380.063 57.1586 380.063 56.8935Z" fill="white"/>
<path d="M380.063 70.044L380.063 61.9823C380.063 61.7507 380.196 61.6348 380.462 61.6348L436.589 61.7043C436.802 61.7043 436.908 61.797 436.908 61.9823V69.9745C436.908 70.1598 436.802 70.2525 436.589 70.2525L380.462 70.322C380.196 70.322 380.063 70.2293 380.063 70.044Z" fill="white"/>
<path d="M416.502 31.2292H410.366C410.253 31.2292 410.197 31.1581 410.197 31.0159L410.282 0.994914C410.282 0.881117 410.338 0.824219 410.45 0.824219H415.716C415.828 0.824219 415.926 0.881117 416.011 0.994914L419.97 5.16779L423.867 0.994914C423.951 0.881117 424.056 0.824219 424.183 0.824219H429.47C429.596 0.824219 429.659 0.881117 429.659 0.994914L429.743 31.0159C429.743 31.1581 429.687 31.2292 429.575 31.2292H423.439C423.326 31.2292 423.27 31.1581 423.27 31.0159L423.228 9.51137L419.97 16.0267L416.713 9.51137L416.671 31.0159C416.671 31.1581 416.614 31.2292 416.502 31.2292Z" fill="white"/>
<path d="M403.336 31.3423H397.982C397.858 31.3423 397.797 31.2808 397.797 31.1577V25.8033C397.797 25.6802 397.858 25.6187 397.982 25.6187H403.336C403.459 25.6187 403.521 25.6802 403.521 25.8033V31.1577C403.521 31.2808 403.459 31.3423 403.336 31.3423Z" fill="#F03880"/>
<path d="M436.725 31.3423H431.37C431.247 31.3423 431.186 31.2808 431.186 31.1577V25.8033C431.186 25.6802 431.247 25.6187 431.37 25.6187H436.725C436.848 25.6187 436.909 25.6802 436.909 25.8033V31.1577C436.909 31.2808 436.848 31.3423 436.725 31.3423Z" fill="#F03880"/>
<defs>
<linearGradient id="paint0_linear_1102_67" x1="332.407" y1="0.815918" x2="332.407" y2="141.69" gradientUnits="userSpaceOnUse">
<stop stop-color="#F03880"/>
<stop offset="1" stop-color="#5E0129"/>
</linearGradient>
<linearGradient id="paint1_linear_1102_67" x1="263.336" y1="0.895996" x2="263.336" y2="141.903" gradientUnits="userSpaceOnUse">
<stop stop-color="#F03880"/>
<stop offset="1" stop-color="#5E0129"/>
</linearGradient>
<linearGradient id="paint2_linear_1102_67" x1="191.239" y1="0.894531" x2="191.239" y2="141.69" gradientUnits="userSpaceOnUse">
<stop stop-color="#F03880"/>
<stop offset="1" stop-color="#5E0129"/>
</linearGradient>
<linearGradient id="paint3_linear_1102_67" x1="109.894" y1="0.895996" x2="109.894" y2="141.903" gradientUnits="userSpaceOnUse">
<stop stop-color="#F03880"/>
<stop offset="1" stop-color="#5E0129"/>
</linearGradient>
<linearGradient id="paint4_linear_1102_67" x1="39.6046" y1="0.895996" x2="39.6046" y2="141.916" gradientUnits="userSpaceOnUse">
<stop stop-color="#F03880"/>
<stop offset="1" stop-color="#5E0129"/>
</linearGradient>
</defs>
</svg>
