<svg width="339" height="111" viewBox="0 0 339 111" fill="none" xmlns="http://www.w3.org/2000/svg">
<path d="M257.314 109.843C251.834 109.843 246.782 110.116 242.157 107.301C237.582 104.485 233.887 100.74 231.072 96.065C228.307 91.3394 226.925 86.1614 226.925 80.531L227.076 29.9107C227.076 24.1797 228.458 19.0268 231.223 14.4521C233.938 9.82713 237.608 6.13217 242.233 3.36722C246.858 0.552013 251.885 0.825326 257.314 0.825326C262.944 0.825326 267.997 0.526877 272.471 3.29182C276.995 6.05676 280.615 9.77686 283.33 14.4521C286.095 19.0771 287.477 24.23 287.477 29.9107L287.628 80.531C287.628 86.1614 286.27 91.3143 283.556 95.9895C280.791 100.715 277.121 104.485 272.546 107.301C267.972 110.116 262.894 109.843 257.314 109.843ZM257.314 91.2169C260.431 91.2169 263.146 91.6411 265.458 89.1275C267.771 86.5636 268.927 83.6981 268.927 80.531L268.776 29.9107C268.776 26.4922 267.695 23.6016 265.533 21.2388C263.372 18.876 260.632 19.3756 257.314 19.3756C254.147 19.3756 251.432 18.8509 249.17 21.1634C246.908 23.4759 245.777 26.3916 245.777 29.9107V80.531C245.777 83.8992 246.908 86.815 249.17 89.2783C251.432 91.6913 254.147 91.2169 257.314 91.2169Z" fill="url(#paint0_linear_1102_67)"/>
<path d="M223.658 110.014H183.824C183.422 110.014 183.221 109.763 183.221 109.26L183.372 1.632C183.372 1.12929 183.623 0.87793 184.126 0.87793H200.957C201.459 0.87793 201.711 1.12929 201.711 1.632L201.56 91.5918H223.658C224.161 91.5918 224.412 91.8431 224.412 92.3458V109.26C224.412 109.763 224.161 110.014 223.658 110.014Z" fill="url(#paint1_linear_1102_67)"/>
<path d="M300.876 24.3551C299.66 24.3551 298.538 24.0461 297.51 23.428C296.494 22.8099 295.679 21.9876 295.065 20.9612C294.463 19.9237 294.161 18.7868 294.161 17.5507V15.9944C294.161 15.873 294.217 15.8123 294.329 15.8123H298.18C298.27 15.8123 298.314 15.873 298.314 15.9944V17.5507C298.314 18.2902 298.565 18.9303 299.068 19.4711C299.57 20.0009 300.173 20.2658 300.876 20.2658C301.591 20.2658 302.199 19.9954 302.702 19.4546C303.204 18.9027 303.082 18.2681 303.082 17.5507C303.082 16.7229 302.908 16.369 301.814 15.7509C301.636 15.6405 301.401 15.5081 301.111 15.3535C300.832 15.188 300.497 15.0003 300.106 14.7906C299.715 14.5809 299.336 14.3767 298.967 14.1781C298.599 13.9684 298.242 13.7697 297.896 13.5821C296.645 12.8536 295.713 11.943 295.099 10.8503C294.496 9.7466 294.195 8.87948 294.195 7.51086C294.195 6.25261 294.507 5.11577 295.132 4.10034C295.758 3.09595 296.573 2.30126 297.577 1.71629C298.593 1.12027 299.693 0.822266 300.876 0.822266C302.093 0.822266 303.21 1.12027 304.226 1.71629C305.242 2.32334 306.051 3.12906 306.654 4.13345C307.268 5.13784 307.575 6.26364 307.575 7.51086V10.2923C307.575 10.3805 307.53 10.4247 307.441 10.4247H303.589C303.5 10.4247 303.455 10.3805 303.455 10.2923L303.422 7.51086C303.422 6.71617 303.171 6.07049 302.668 5.57381C302.166 5.07714 301.569 4.8288 300.876 4.8288C300.173 4.8288 299.57 5.09369 299.068 5.62348C298.565 6.15327 298.688 6.7824 298.688 7.51086C298.688 8.25035 298.844 8.86844 299.156 9.36512C299.48 9.8618 299.693 9.96735 300.542 10.4199C300.631 10.464 300.837 10.5744 301.161 10.751C301.485 10.9276 301.842 11.1263 302.233 11.347C302.635 11.5567 302.998 11.7499 303.321 11.9265C303.645 12.092 303.841 12.1914 303.908 12.2245C305.046 12.8536 305.945 13.6262 306.604 14.5423C307.274 15.4584 307.608 16.2151 307.608 17.5507C307.608 18.842 307.307 20.0009 306.704 21.0274C306.09 22.0539 305.275 22.8651 304.259 23.4611C303.243 24.0571 302.116 24.3551 300.876 24.3551Z" fill="white"/>
<path d="M322.364 24.3551H317.615C317.528 24.3551 317.484 24.3001 317.484 24.19L317.55 0.95438C317.55 0.866304 317.593 0.822266 317.68 0.822266H321.756C321.842 0.822266 321.919 0.866304 321.984 0.95438L325.049 4.1841L328.064 0.95438C328.13 0.866304 328.211 0.822266 328.309 0.822266H332.401C332.499 0.822266 332.547 0.866304 332.547 0.95438L332.613 24.19C332.613 24.3001 332.569 24.3551 332.482 24.3551H327.733C327.646 24.3551 327.602 24.3001 327.602 24.19L327.57 7.54594L325.049 12.5887L322.527 7.54594L322.495 24.19C322.495 24.3001 322.451 24.3551 322.364 24.3551Z" fill="white"/>
<path d="M312.174 24.4427H308.03C307.934 24.4427 307.887 24.3951 307.887 24.2998V20.1556C307.887 20.0603 307.934 20.0127 308.03 20.0127H312.174C312.269 20.0127 312.317 20.0603 312.317 20.1556V24.2998C312.317 24.3951 312.269 24.4427 312.174 24.4427Z" fill="#F03880"/>
<path d="M338.016 24.4427H333.871C333.776 24.4427 333.729 24.3951 333.729 24.2998V20.1556C333.729 20.0603 333.776 20.0127 333.871 20.0127H338.016C338.111 20.0127 338.159 20.0603 338.159 20.1556V24.2998C338.159 24.3951 338.111 24.4427 338.016 24.4427Z" fill="#F03880"/>
<path d="M147.902 109.84C142.473 109.84 137.446 110.114 132.821 107.298C128.196 104.483 124.501 100.713 121.736 95.9872C119.021 91.2114 117.664 86.0083 117.664 80.3779L117.966 1.47972C117.966 1.07755 118.167 0.876465 118.569 0.876465H135.551C135.953 0.876465 136.154 1.07755 136.154 1.47972V80.3779C136.154 83.8466 137.26 86.8127 139.472 89.276C141.684 91.689 144.735 91.5903 147.902 91.5903C151.22 91.5903 154.157 91.6907 156.369 89.2776C158.581 86.8143 159.687 83.8483 159.687 80.3795V1.48137C159.687 1.07919 159.888 0.878106 160.29 0.878106L177.462 0.876465C177.864 0.876465 178.065 1.07755 178.065 1.47972L178.367 80.3779C178.367 86.0586 177.01 91.2868 174.295 96.0627C171.53 100.788 167.86 104.559 163.286 107.374C158.711 110.139 153.583 109.84 147.902 109.84Z" fill="url(#paint2_linear_1102_67)"/>
<path d="M54.3242 109.26L73.4777 1.48119C73.5783 1.07902 73.8296 0.87793 74.2318 0.87793H96.6278C97.03 0.87793 97.2813 1.07902 97.3819 1.48119L115.781 109.26C115.832 109.763 115.63 110.014 115.178 110.014H98.0605C97.5578 110.014 97.2813 109.763 97.2311 109.26L95.5721 98.3155H74.5334L72.8745 109.26C72.8242 109.763 72.5728 110.014 72.1204 110.014H54.9275C54.5253 110.014 54.3242 109.763 54.3242 109.26ZM76.6251 84.4351H93.4804L85.2413 39.0787L76.6251 84.4351Z" fill="url(#paint3_linear_1102_67)"/>
<path d="M17.736 110.024H0.754075C0.251358 110.024 0 109.773 0 109.27L0.0196983 1.48119C0.0196983 1.07902 0.220785 0.87793 0.622958 0.87793L30.6154 0.887779C40.0665 0.887779 47.5318 3.7784 53.0114 9.55964C58.5413 15.2906 61.3063 23.1078 61.3063 33.0114C61.3063 40.2505 59.8735 46.5596 57.008 51.9386C54.0923 57.2674 50.3219 61.3897 45.6969 64.3055C41.0719 67.2212 36.0448 68.6791 30.6154 68.6791H18.4901V109.27C18.4901 109.773 18.2388 110.024 17.736 110.024ZM30.6154 19.2118L18.4901 19.3626V49.978H30.6154C33.8831 49.978 36.7234 48.4196 39.1365 45.3028C41.5495 42.1357 42.023 37.7966 42.023 32.7694C42.023 28.7477 41.6752 25.6968 39.5135 23.133C37.3518 20.5189 34.3858 19.2118 30.6154 19.2118Z" fill="url(#paint4_linear_1102_67)"/>
<path d="M300.876 24.3551C299.66 24.3551 298.538 24.0461 297.51 23.428C296.494 22.8099 295.679 21.9876 295.065 20.9612C294.463 19.9237 294.161 18.7868 294.161 17.5507V15.9944C294.161 15.873 294.217 15.8123 294.329 15.8123H298.18C298.27 15.8123 298.314 15.873 298.314 15.9944V17.5507C298.314 18.2902 298.565 18.9303 299.068 19.4711C299.57 20.0009 300.173 20.2658 300.876 20.2658C301.591 20.2658 302.199 19.9954 302.702 19.4546C303.204 18.9027 303.082 18.2681 303.082 17.5507C303.082 16.7229 302.908 16.369 301.814 15.7509C301.636 15.6405 301.401 15.5081 301.111 15.3535C300.832 15.188 300.497 15.0003 300.106 14.7906C299.715 14.5809 299.336 14.3767 298.967 14.1781C298.599 13.9684 298.242 13.7697 297.896 13.5821C296.645 12.8536 295.713 11.943 295.099 10.8503C294.496 9.7466 294.195 8.87948 294.195 7.51086C294.195 6.25261 294.507 5.11577 295.132 4.10034C295.758 3.09595 296.573 2.30126 297.577 1.71629C298.593 1.12027 299.693 0.822266 300.876 0.822266C302.093 0.822266 303.21 1.12027 304.226 1.71629C305.242 2.32334 306.051 3.12906 306.654 4.13345C307.268 5.13784 307.575 6.26364 307.575 7.51086V10.2923C307.575 10.3805 307.53 10.4247 307.441 10.4247H303.589C303.5 10.4247 303.455 10.3805 303.455 10.2923L303.422 7.51086C303.422 6.71617 303.171 6.07049 302.668 5.57381C302.166 5.07714 301.569 4.8288 300.876 4.8288C300.173 4.8288 299.57 5.09369 299.068 5.62348C298.565 6.15327 298.688 6.7824 298.688 7.51086C298.688 8.25035 298.844 8.86844 299.156 9.36512C299.48 9.8618 299.693 9.96735 300.542 10.4199C300.631 10.464 300.837 10.5744 301.161 10.751C301.485 10.9276 301.842 11.1263 302.233 11.347C302.635 11.5567 302.998 11.7499 303.321 11.9265C303.645 12.092 303.841 12.1914 303.908 12.2245C305.046 12.8536 305.945 13.6262 306.604 14.5423C307.274 15.4584 307.608 16.2151 307.608 17.5507C307.608 18.842 307.307 20.0009 306.704 21.0274C306.09 22.0539 305.275 22.8651 304.259 23.4611C303.243 24.0571 302.116 24.3551 300.876 24.3551Z" fill="white"/>
<path d="M294.161 97.467C294.161 95.1853 294.739 93.0815 295.894 91.1557C297.05 89.2508 298.587 87.7227 300.506 86.5714C302.446 85.441 304.572 84.8758 306.883 84.8758L310.742 84.8684C310.969 84.8684 311.083 84.9731 311.083 85.1824V93.0218C311.083 93.1893 310.969 93.273 310.742 93.273L306.883 93.2804C305.5 93.2804 304.303 93.7514 303.292 94.6934C302.302 95.6354 301.806 96.1482 301.806 97.467C301.806 98.8067 302.312 99.9476 303.323 100.89C304.355 101.832 305.541 101.603 306.883 101.603C308.43 101.603 309.092 101.277 310.247 99.2254C310.454 98.8905 310.701 98.4509 310.99 97.9066C311.3 97.3833 311.651 96.7553 312.043 96.0226C312.435 95.29 312.817 94.5783 313.188 93.8875C313.58 93.1967 313.951 92.5268 314.302 91.8779C315.664 89.5334 317.367 87.7855 319.409 86.6342C321.473 85.5038 323.094 84.9386 325.653 84.9386C328.005 84.9386 330.131 85.5247 332.029 86.697C333.907 87.8692 335.393 89.3973 336.486 91.2813C337.601 93.1862 338.158 95.2481 338.158 97.467C338.158 99.7487 337.601 101.842 336.486 103.747C335.351 105.652 333.845 107.169 331.967 108.3C330.089 109.451 327.985 110.027 325.653 110.027H319.782C319.617 110.027 319.535 109.943 319.535 109.776L319.544 101.949C319.544 101.782 319.626 101.698 319.791 101.698L325.662 101.635C327.148 101.635 328.355 101.164 329.283 100.222C330.212 99.2804 330.676 98.1605 330.667 97.467C330.667 96.1482 330.172 95.0179 329.181 94.0759C328.191 93.1339 326.828 93.2804 325.466 93.2804C324.084 93.2804 323.115 93.6559 322.186 94.242C321.258 94.8491 321.06 95.2481 320.214 96.839C320.132 97.0065 319.925 97.3937 319.595 98.0008C319.265 98.6079 318.894 99.2777 318.481 100.01C318.089 100.764 317.728 101.444 317.398 102.051C317.088 102.658 316.902 103.025 316.84 103.15C315.664 105.285 314.22 106.971 312.507 108.206C310.794 109.462 309.38 110.09 306.883 110.09C304.468 110.09 302.302 109.524 300.383 108.394C298.464 107.243 296.947 105.715 295.833 103.81C294.718 101.905 294.161 99.7906 294.161 97.467Z" fill="white"/>
<path d="M294.204 64.0968L294.161 58.5224C294.161 58.1973 294.305 58.0347 294.593 58.0347L337.664 57.9737C337.993 57.9737 338.158 58.1363 338.158 58.4615V64.6974L312.775 74.7829H337.664C337.993 74.7829 338.158 74.9658 338.158 75.3316V81.0798C338.158 81.3237 337.993 81.4456 337.664 81.4456L294.532 81.5066C294.285 81.5066 294.161 81.405 294.161 81.2018L294.161 74.7829L317.852 64.6974L294.698 64.676C294.369 64.676 294.204 64.4829 294.204 64.0968Z" fill="white"/>
<path d="M294.161 44.2188L294.161 27.9635C294.161 27.7993 294.264 27.7173 294.47 27.7173L337.849 27.7788C338.055 27.7788 338.158 27.8814 338.158 28.0865V35.8757C338.158 36.0809 338.055 36.1834 337.849 36.1834L302.622 36.1219L302.622 44.2188C302.622 44.4239 302.519 44.5265 302.313 44.5265L294.47 44.5265C294.264 44.5265 294.161 44.4239 294.161 44.2188Z" fill="white"/>
<path d="M294.161 54.3969L294.161 48.1574C294.161 47.9781 294.264 47.8884 294.47 47.8884L337.911 47.9422C338.075 47.9422 338.158 48.0139 338.158 48.1574V54.3432C338.158 54.4866 338.075 54.5583 337.911 54.5583L294.47 54.6121C294.264 54.6121 294.161 54.5404 294.161 54.3969Z" fill="white"/>
<path d="M322.364 24.3551H317.615C317.528 24.3551 317.484 24.3001 317.484 24.19L317.55 0.95438C317.55 0.866304 317.593 0.822266 317.68 0.822266H321.756C321.842 0.822266 321.919 0.866304 321.984 0.95438L325.049 4.1841L328.064 0.95438C328.13 0.866304 328.211 0.822266 328.309 0.822266H332.401C332.499 0.822266 332.547 0.866304 332.547 0.95438L332.613 24.19C332.613 24.3001 332.569 24.3551 332.482 24.3551H327.733C327.646 24.3551 327.602 24.3001 327.602 24.19L327.57 7.54594L325.049 12.5887L322.527 7.54594L322.495 24.19C322.495 24.3001 322.451 24.3551 322.364 24.3551Z" fill="white"/>
<path d="M312.174 24.4427H308.03C307.934 24.4427 307.887 24.3951 307.887 24.2998V20.1556C307.887 20.0603 307.934 20.0127 308.03 20.0127H312.174C312.269 20.0127 312.317 20.0603 312.317 20.1556V24.2998C312.317 24.3951 312.269 24.4427 312.174 24.4427Z" fill="#F03880"/>
<path d="M338.016 24.4427H333.871C333.776 24.4427 333.729 24.3951 333.729 24.2998V20.1556C333.729 20.0603 333.776 20.0127 333.871 20.0127H338.016C338.111 20.0127 338.159 20.0603 338.159 20.1556V24.2998C338.159 24.3951 338.111 24.4427 338.016 24.4427Z" fill="#F03880"/>
<defs>
<linearGradient id="paint0_linear_1102_67" x1="257.276" y1="0.815918" x2="257.276" y2="109.85" gradientUnits="userSpaceOnUse">
<stop stop-color="#F03880"/>
<stop offset="1" stop-color="#FF0064" stop-opacity="0.34"/>
</linearGradient>
<linearGradient id="paint1_linear_1102_67" x1="203.816" y1="0.87793" x2="203.816" y2="110.014" gradientUnits="userSpaceOnUse">
<stop stop-color="#F03880"/>
<stop offset="1" stop-color="#FF0064" stop-opacity="0.34"/>
</linearGradient>
<linearGradient id="paint2_linear_1102_67" x1="148.016" y1="0.876465" x2="148.016" y2="109.85" gradientUnits="userSpaceOnUse">
<stop stop-color="#F03880"/>
<stop offset="1" stop-color="#FF0064" stop-opacity="0.34"/>
</linearGradient>
<linearGradient id="paint3_linear_1102_67" x1="85.0565" y1="0.87793" x2="85.0565" y2="110.014" gradientUnits="userSpaceOnUse">
<stop stop-color="#F03880"/>
<stop offset="1" stop-color="#FF0064" stop-opacity="0.34"/>
</linearGradient>
<linearGradient id="paint4_linear_1102_67" x1="30.6531" y1="0.87793" x2="30.6531" y2="110.024" gradientUnits="userSpaceOnUse">
<stop stop-color="#F03880"/>
<stop offset="1" stop-color="#FF0064" stop-opacity="0.34"/>
</linearGradient>
</defs>
</svg>
