<svg width="157" height="168" viewBox="0 0 157 168" fill="none" xmlns="http://www.w3.org/2000/svg">
<path d="M137.646 53.4489C136.137 52.6932 134.309 53.05 133.196 54.3175C132.082 55.585 131.964 57.444 132.908 58.8423C135.298 62.3828 134.797 66.5696 132.195 70.545C132.014 70.8217 131.825 71.093 131.629 71.3586C132.827 65.5935 132.122 59.7499 130.481 54.4177C127.621 45.1234 121.824 36.915 117.498 32.0869C112.995 26.709 107.875 22.5238 103.774 19.1724C102.656 18.2581 101.613 17.4058 100.679 16.6083C98.379 14.6432 96.8607 13.1236 96.0157 11.7881C95.2737 10.6152 95.2045 9.84984 95.4404 9.05207C95.888 7.5381 95.3286 5.90667 94.0462 4.9859C92.7637 4.06513 91.0391 4.05668 89.7477 4.96484C86.7745 7.05572 85.1056 9.83643 84.7506 13.1005C84.4202 16.1381 85.2703 19.223 86.4505 22.0631C87.6472 24.943 89.3578 27.9698 91.1537 30.9786C91.8193 32.0937 92.4908 33.1973 93.164 34.3037C94.3632 36.2746 95.5679 38.2542 96.754 40.3239C100.454 46.781 103.326 53.0568 103.627 59.0199C103.887 64.1906 102.229 69.4956 96.376 74.7772C93.703 73.8212 91.408 73.2118 88.1584 72.7472L80.4955 44.6501C80.0464 43.0032 78.5315 41.8752 76.8249 41.917C75.1183 41.9588 73.6605 43.1595 73.2925 44.8265L67.116 72.8023C64.6285 73.2217 62.5772 73.8158 60.056 74.7566C54.2329 69.4884 52.6135 64.2018 52.9115 59.0473C53.2561 53.086 56.1888 46.8089 59.9585 40.3491C61.1673 38.2778 62.3945 36.2959 63.6159 34.3233C64.3 33.2185 64.9823 32.1166 65.6585 31.0035C67.4863 27.9951 69.228 24.9698 70.4522 22.0915C71.6588 19.2547 72.5381 16.1689 72.2285 13.1261C71.8953 9.85058 70.2313 7.05986 67.2522 4.96484C65.9608 4.05668 64.2362 4.06513 62.9537 4.9859C61.6713 5.90667 61.1119 7.5381 61.5596 9.05207C61.7954 9.84985 61.7263 10.6152 60.9842 11.7881C60.1392 13.1236 58.621 14.6432 56.3206 16.6083C55.3871 17.4058 54.3444 18.2581 53.2257 19.1724C49.1254 22.5238 44.0049 26.709 39.5018 32.0869C35.1763 36.915 29.3785 45.1234 26.5185 54.4177C24.8777 59.7499 24.1725 65.5935 25.371 71.3586C25.1753 71.093 24.9865 70.8217 24.8053 70.545C22.203 66.5696 21.7019 62.3828 24.0919 58.8423C25.0358 57.4441 24.9176 55.585 23.8043 54.3175C22.6909 53.05 20.8626 52.6932 19.3543 53.4489C16.3929 54.9327 12.96 57.807 10.9473 60.7838L13.9718 62.8287L10.9473 60.7838C5.9028 68.2447 3.91767 75.0167 4.34584 81.204C4.77341 87.3827 7.57131 92.448 11.0833 96.5679C14.5654 100.653 18.8962 103.979 22.674 106.699C23.6098 107.372 24.4917 107.997 25.3164 108.581C28.0222 110.496 30.1119 111.976 31.4683 113.335C31.882 113.75 32.4195 114.634 32.9924 116.365C33.5497 118.048 34.0185 120.134 34.5385 122.651C34.6417 123.151 34.7462 123.665 34.8534 124.191C35.7957 128.822 36.9398 134.443 39.0856 139.855C41.5059 145.96 45.284 152.046 51.722 156.568C58.163 161.093 66.9059 163.8 78.8044 163.8C90.7012 163.8 99.4146 161.094 105.806 156.558C112.196 152.024 115.895 145.924 118.235 139.815C120.296 134.434 121.368 128.844 122.252 124.234C122.358 123.678 122.462 123.137 122.565 122.612C123.056 120.096 123.502 118.014 124.043 116.337C124.599 114.612 125.128 113.74 125.532 113.335C126.888 111.976 128.978 110.496 131.684 108.581C132.508 107.997 133.39 107.372 134.326 106.699C138.104 103.979 142.435 100.653 145.917 96.5679C149.429 92.448 152.227 87.3827 152.654 81.204C153.082 75.0167 151.097 68.2447 146.053 60.7838C144.04 57.807 140.607 54.9327 137.646 53.4489Z" fill="#F03880" stroke="#0B010B" stroke-width="7.42105" stroke-linejoin="round"/>
<path d="M70.1828 129.196C63.8479 128.8 51.9659 127.216 46.8149 122.859C43.6485 135.137 52.3624 146.227 60.6772 145.435C67.2295 144.686 70.1828 141.078 70.1828 129.196Z" fill="#0B010B"/>
<path d="M86.3738 129.196C92.7087 128.8 104.591 127.216 109.742 122.859C112.908 135.137 104.194 146.227 95.8794 145.435C89.3272 144.686 86.3738 141.078 86.3738 129.196Z" fill="#0B010B"/>
<path d="M63.4737 108.795C67.3645 112.724 69.0871 119.575 67.7569 120.575C65.9735 121.917 61.5238 121.362 57.2436 118.612C51.4316 113.706 50.2318 107.753 52.9604 105.654C55.5036 103.698 59.1973 104.481 63.4737 108.795Z" fill="#0B010B"/>
<path d="M92.7323 108.795C88.8415 112.724 87.1189 119.575 88.4491 120.575C90.2325 121.917 94.6823 121.362 98.9624 118.612C104.774 113.706 105.974 107.753 103.246 105.654C100.702 103.698 97.0088 104.481 92.7323 108.795Z" fill="#0B010B"/>
<path d="M73.7491 101.472C74.498 105.678 75.0411 107.836 77.7098 108.997C79.9773 107.791 80.7595 105.949 81.6705 101.472C83.7148 93.9063 83.7393 90.8371 80.4823 88.7979C80.5117 91.112 80.0047 92.9229 77.7098 97.5113C75.7796 93.9001 74.9964 91.9585 74.5413 88.7979C71.5063 90.806 71.6076 93.8827 73.7491 101.472Z" fill="#0B010B"/>
</svg>
