<svg width="226" height="242" viewBox="0 0 226 242" fill="none" xmlns="http://www.w3.org/2000/svg">
<path d="M177.723 159.928C165.736 171.94 179.499 232 113.351 232C47.2018 232 60.0764 171.94 48.0897 159.928C36.103 147.916 -8.73618 130.79 18.7888 90.0802C21.1702 86.5581 25.4481 82.9619 28.9997 81.1824C18.7888 96.3086 35.2151 115.439 48.9776 117.663C28.1118 94.0842 48.0897 62.0521 60.0764 48.7054C76.0586 29.5751 96.9244 22.012 93.3728 10C118.678 27.7956 38.3227 76.2886 84.9377 113.659C91.2081 111.145 94.6842 110.119 100.766 109.438L110.594 64.9219L122.734 109.438C130.429 110.264 134.068 111.329 140.078 113.659C186.693 76.2886 107.134 27.7956 132.44 10C128.888 22.012 149.754 29.5751 165.736 48.7054C177.723 62.0521 197.701 94.0842 176.835 117.663C190.597 115.439 207.024 96.3086 196.813 81.1824C200.364 82.9619 204.642 86.5581 207.024 90.0802C234.549 130.79 189.71 147.916 177.723 159.928Z" fill="#F03880"/>
<path d="M100.765 186.906C91.5178 186.328 74.1741 184.016 66.6553 177.656C62.0335 195.578 74.7528 211.766 86.8897 210.609C96.4537 209.516 100.765 204.25 100.765 186.906Z" fill="#0B010B"/>
<path d="M124.404 186.906C133.651 186.328 150.995 184.016 158.513 177.656C163.135 195.578 150.416 211.766 138.279 210.609C128.715 209.516 124.404 204.25 124.404 186.906Z" fill="#0B010B"/>
<path d="M90.9744 157.128C96.6537 162.862 99.1681 172.863 97.2264 174.323C94.6233 176.281 88.1282 175.472 81.8806 171.457C73.397 164.297 71.6457 155.607 75.6285 152.543C79.3408 149.687 84.7323 150.831 90.9744 157.128Z" fill="#0B010B"/>
<path d="M133.669 157.128C127.989 162.862 125.475 172.863 127.417 174.323C130.02 176.281 136.515 175.472 142.763 171.457C151.246 164.297 152.997 155.607 149.015 152.543C145.302 149.687 139.911 150.831 133.669 157.128Z" fill="#0B010B"/>
<path d="M105.97 146.438C107.063 152.577 107.856 155.726 111.752 157.422C115.061 155.661 116.203 152.972 117.533 146.438C120.517 135.394 120.553 130.914 115.798 127.938C115.841 131.315 115.101 133.959 111.752 140.656C108.934 135.385 107.791 132.551 107.127 127.938C102.696 130.869 102.844 135.36 105.97 146.438Z" fill="#0B010B"/>
<path d="M177.723 159.928L170.644 152.864L170.644 152.864L177.723 159.928ZM196.813 81.1824L201.292 72.2419C197.228 70.2051 192.3 71.1669 189.3 74.5828C186.299 77.9988 185.981 83.0089 188.524 86.7773L196.813 81.1824ZM176.835 117.663L169.346 111.036C166.546 114.201 166.037 118.785 168.075 122.487C170.113 126.189 174.259 128.21 178.431 127.535L176.835 117.663ZM132.44 10L142.029 12.8354C143.236 8.75517 141.728 4.35839 138.272 1.87688C134.816 -0.604627 130.168 -0.627393 126.687 1.82014L132.44 10ZM140.078 113.659L136.464 122.983C139.79 124.272 143.55 123.693 146.333 121.462L140.078 113.659ZM207.024 90.0802L198.74 95.6813L198.74 95.6813L207.024 90.0802ZM165.736 48.7054L158.062 55.1168C158.138 55.2083 158.216 55.2985 158.296 55.3873L165.736 48.7054ZM48.0897 159.928L55.1682 152.864L55.1682 152.864L48.0897 159.928ZM28.9997 81.1824L37.2881 86.7773C39.8319 83.0089 39.5134 77.9988 36.5128 74.5828C33.5122 71.1669 28.585 70.2051 24.52 72.2419L28.9997 81.1824ZM48.9776 117.663L47.382 127.535C51.5538 128.21 55.6992 126.189 57.7375 122.487C59.7758 118.785 59.267 114.201 56.4664 111.036L48.9776 117.663ZM93.3728 10L99.1251 1.82014C95.6448 -0.627393 90.9968 -0.604627 87.5405 1.87688C84.0843 4.35839 82.5768 8.75517 83.7832 12.8354L93.3728 10ZM84.9377 113.659L78.6827 121.462C81.4977 123.718 85.3101 124.284 88.6589 122.941L84.9377 113.659ZM18.7888 90.0802L10.5047 84.479L10.5047 84.479L18.7888 90.0802ZM60.0764 48.7054L67.5163 55.3873C67.596 55.2985 67.6741 55.2083 67.7506 55.1168L60.0764 48.7054ZM100.766 109.438L101.88 119.375C106.131 118.899 109.608 115.771 110.53 111.593L100.766 109.438ZM110.594 64.9219L120.241 62.2907C119.031 57.8522 114.948 54.8123 110.349 54.9249C105.75 55.0375 101.821 58.2736 100.829 62.766L110.594 64.9219ZM122.734 109.438L113.087 112.069C114.17 116.039 117.574 118.941 121.666 119.38L122.734 109.438ZM66.6553 177.656L73.1132 170.021L60.9502 159.734L56.9722 175.159L66.6553 177.656ZM100.765 186.906H110.765V177.512L101.389 176.926L100.765 186.906ZM86.8897 210.609L87.838 220.564L87.9319 220.555L88.0255 220.545L86.8897 210.609ZM158.513 177.656L168.197 175.159L164.218 159.734L152.055 170.021L158.513 177.656ZM124.404 186.906L123.78 176.926L114.404 177.512V186.906H124.404ZM138.279 210.609L137.143 220.545L137.237 220.555L137.331 220.564L138.279 210.609ZM97.2264 174.323L91.2148 166.332L91.2148 166.332L97.2264 174.323ZM90.9744 157.128L98.0793 150.091L98.0768 150.089L90.9744 157.128ZM75.6285 152.543L81.7257 160.469L81.726 160.469L75.6285 152.543ZM81.8806 171.457L75.4305 179.099L75.9275 179.519L76.4747 179.87L81.8806 171.457ZM127.417 174.323L133.428 166.332L133.428 166.332L127.417 174.323ZM133.669 157.128L126.566 150.089L126.564 150.091L133.669 157.128ZM149.015 152.543L142.917 160.469L142.917 160.469L149.015 152.543ZM142.763 171.457L148.168 179.87L148.716 179.519L149.213 179.099L142.763 171.457ZM111.752 157.422L107.76 166.591L112.186 168.517L116.448 166.251L111.752 157.422ZM105.97 146.438L115.815 144.684L115.729 144.198L115.594 143.722L105.97 146.438ZM107.127 127.938L117.024 126.512L114.774 110.886L101.608 119.598L107.127 127.938ZM111.752 140.656L102.932 145.37L112.047 162.422L120.695 145.129L111.752 140.656ZM115.798 127.938L121.105 119.462L105.566 109.732L105.799 128.065L115.798 127.938ZM117.533 146.438L107.879 143.829L107.797 144.134L107.734 144.443L117.533 146.438ZM113.351 242C131.417 242 145.131 237.882 155.417 230.583C165.697 223.288 171.557 213.52 175.186 204.045C178.733 194.784 180.366 185.132 181.725 178.173C182.443 174.491 183.051 171.699 183.746 169.542C184.483 167.257 184.98 166.812 184.801 166.991L170.644 152.864C167.469 156.047 165.774 160.106 164.711 163.405C163.606 166.832 162.805 170.703 162.095 174.341C160.596 182.021 159.288 189.636 156.509 196.892C153.812 203.933 149.96 209.931 143.842 214.273C137.73 218.61 128.359 222 113.351 222V242ZM188.524 86.7773C190.645 89.9181 190.609 93.9533 187.447 98.784C184.108 103.885 178.805 107.215 175.239 107.791L178.431 127.535C188.627 125.887 198.419 118.539 204.181 109.738C210.119 100.666 213.192 87.5729 205.101 75.5874L188.524 86.7773ZM126.687 1.82014C121.351 5.57248 118.144 10.778 117.473 16.9493C116.868 22.5105 118.44 27.8621 120.278 32.2864C122.161 36.8179 124.806 41.4776 127.44 45.8903C130.223 50.5531 132.889 54.7763 135.574 59.4612C140.934 68.8151 144.624 77.1625 145.004 84.7026C145.336 91.2894 143.203 98.3373 133.823 105.857L146.333 121.462C160.261 110.296 165.663 97.2682 164.979 83.6959C164.343 71.077 158.465 59.1819 152.926 49.5167C150.161 44.6921 147.044 39.7117 144.614 35.64C142.034 31.3183 140.036 27.7128 138.747 24.6117C137.414 21.4033 137.286 19.7549 137.356 19.1119C137.359 19.0791 137.202 18.8764 138.192 18.1799L126.687 1.82014ZM184.801 166.991C187.035 164.753 190.895 162.234 197.072 157.787C202.633 153.783 209.338 148.661 214.8 142.253C220.344 135.75 225.007 127.459 225.719 117.17C226.433 106.857 223.079 95.9727 215.308 84.479L198.74 95.6813C204.731 104.543 206.094 111.065 205.767 115.789C205.439 120.536 203.304 124.91 199.58 129.278C195.775 133.742 190.743 137.699 185.385 141.556C180.644 144.97 174.404 149.097 170.644 152.864L184.801 166.991ZM215.308 84.479C211.899 79.4373 206.268 74.7347 201.292 72.2419L192.333 90.1228C194.461 91.1892 197.386 93.6788 198.74 95.6813L215.308 84.479ZM184.324 124.29C197.818 109.042 197.689 91.1134 193.163 76.4061C188.716 61.9557 179.773 49.3695 173.176 42.0236L158.296 55.3873C163.685 61.388 170.725 71.4912 174.047 82.2883C177.291 92.8285 176.718 102.706 169.346 111.036L184.324 124.29ZM173.41 42.294C164.702 31.8703 154.295 24.2372 148.258 19.08C144.923 16.2314 143.18 14.3951 142.347 13.0785C141.999 12.529 141.999 12.3516 142.023 12.4807C142.06 12.6762 142.025 12.8484 142.029 12.8354L122.85 7.16463C120.958 13.5622 122.589 19.2558 125.446 23.7717C128.026 27.8494 131.832 31.3518 135.267 34.2868C142.771 40.6967 150.788 46.4103 158.062 55.1168L173.41 42.294ZM113.351 222C98.3469 222 88.8968 218.612 82.6809 214.245C76.4566 209.873 72.502 203.837 69.7054 196.783C66.8268 189.522 65.4172 181.894 63.8346 174.234C63.084 170.6 62.2447 166.741 61.1154 163.33C60.0285 160.047 58.3181 156.021 55.1682 152.864L41.0111 166.991C40.8579 166.838 41.3673 167.316 42.129 169.616C42.8484 171.789 43.4866 174.593 44.2482 178.28C45.69 185.259 47.4436 194.898 51.1133 204.154C54.865 213.617 60.8438 223.347 71.1844 230.611C81.5335 237.881 95.2799 242 113.351 242V222ZM20.7114 75.5874C12.6207 87.5729 15.6931 100.666 21.6319 109.738C27.3935 118.539 37.1854 125.887 47.382 127.535L50.5732 107.791C47.0072 107.215 41.7048 103.885 38.3654 98.784C35.2031 93.9534 35.1679 89.9181 37.2881 86.7773L20.7114 75.5874ZM87.6204 18.1799C88.595 18.8653 88.4149 19.0409 88.4151 19.0428C88.4791 19.6718 88.3414 21.3179 86.973 24.535C85.6521 27.6406 83.6133 31.25 80.9869 35.5728C78.5112 39.6478 75.3427 44.624 72.5272 49.4488C66.8911 59.1068 60.895 70.9981 60.1652 83.6221C59.3791 97.2208 64.7362 110.281 78.6827 121.462L91.1927 105.857C81.8317 98.3525 79.7526 91.3368 80.1319 84.7764C80.5675 77.2413 84.3383 68.8902 89.801 59.5292C92.5349 54.8444 95.2487 50.617 98.0796 45.9575C100.76 41.5459 103.452 36.8901 105.377 32.363C107.255 27.9476 108.88 22.5935 108.312 17.0184C107.681 10.8162 104.477 5.58365 99.1251 1.82014L87.6204 18.1799ZM55.1682 152.864C51.4085 149.097 45.1684 144.97 40.427 141.556C35.0694 137.699 30.0373 133.742 26.2326 129.278C22.5083 124.91 20.374 120.536 20.0455 115.789C19.7186 111.065 21.0817 104.543 27.073 95.6813L10.5047 84.479C2.73352 95.9727 -0.6204 106.857 0.0932061 117.17C0.805209 127.459 5.46894 135.75 11.0122 142.253C16.4749 148.661 23.1798 153.783 28.7406 157.787C34.9176 162.234 38.7775 164.753 41.0111 166.991L55.1682 152.864ZM27.073 95.6813C28.4269 93.6788 31.3514 91.1891 33.4794 90.1229L24.52 72.2419C19.5449 74.7347 13.9135 79.4374 10.5047 84.479L27.073 95.6813ZM56.4664 111.036C49.0944 102.706 48.5216 92.8285 51.765 82.2883C55.0875 71.4912 62.127 61.388 67.5163 55.3873L52.6364 42.0236C46.039 49.3695 37.0963 61.9557 32.6496 76.4061C28.1239 91.1134 27.995 109.042 41.4887 124.29L56.4664 111.036ZM67.7506 55.1168C75.0245 46.4102 83.0415 40.6967 90.545 34.2868C93.9808 31.3517 97.7868 27.8494 100.367 23.7717C103.224 19.2558 104.854 13.5622 102.962 7.16463L83.7832 12.8354C83.787 12.8484 83.7525 12.6762 83.7892 12.4807C83.8135 12.3516 83.813 12.529 83.4654 13.0785C82.6324 14.3951 80.889 16.2314 77.5545 19.08C71.5175 24.2372 61.1106 31.8703 52.4021 42.294L67.7506 55.1168ZM88.6589 122.941C94.3473 120.661 96.9289 119.93 101.88 119.375L99.6516 99.4998C92.4396 100.308 88.0689 101.63 81.2164 104.377L88.6589 122.941ZM110.53 111.593L120.359 67.0778L100.829 62.766L91.0008 107.282L110.53 111.593ZM100.946 67.5531L113.087 112.069L132.382 106.806L120.241 62.2907L100.946 67.5531ZM121.666 119.38C128.38 120.101 131.162 120.928 136.464 122.983L143.692 104.335C136.973 101.731 132.479 100.427 123.802 99.4947L121.666 119.38ZM60.1975 185.291C65.9185 190.13 74.1894 192.705 80.8694 194.206C87.9608 195.799 95.16 196.575 100.141 196.887L101.389 176.926C97.1224 176.659 91.0264 175.99 85.2545 174.693C79.0712 173.303 74.911 171.542 73.1132 170.021L60.1975 185.291ZM90.7646 186.906C90.7646 195.227 89.6343 198.436 88.9442 199.535C88.8532 199.68 88.7633 200.33 85.7538 200.674L88.0255 220.545C94.5801 219.795 101.428 217.266 105.883 210.169C109.74 204.025 110.765 195.93 110.765 186.906H90.7646ZM85.9413 200.654C84.7047 200.772 81.6222 199.936 78.7934 195.718C76.1725 191.809 74.7796 186.198 76.3385 180.153L56.9722 175.159C53.9092 187.036 56.5651 198.48 62.1826 206.857C67.5922 214.923 76.9378 221.603 87.838 220.564L85.9413 200.654ZM152.055 170.021C150.258 171.542 146.097 173.303 139.914 174.693C134.142 175.99 128.046 176.659 123.78 176.926L125.028 196.887C130.009 196.575 137.208 195.799 144.299 194.206C150.979 192.705 159.25 190.13 164.971 185.291L152.055 170.021ZM114.404 186.906C114.404 195.93 115.429 204.025 119.286 210.169C123.741 217.266 130.589 219.795 137.143 220.545L139.415 200.674C136.405 200.33 136.315 199.68 136.224 199.535C135.534 198.436 134.404 195.227 134.404 186.906H114.404ZM137.331 220.564C148.231 221.603 157.576 214.923 162.986 206.857C168.604 198.48 171.259 187.036 168.197 175.159L148.83 180.153C150.389 186.198 148.996 191.809 146.375 195.718C143.546 199.936 140.464 200.772 139.227 200.654L137.331 220.564ZM103.238 182.314C106.063 180.189 107.069 177.348 107.45 175.823C107.867 174.155 107.908 172.59 107.859 171.41C107.759 169.009 107.204 166.52 106.476 164.26C105.03 159.774 102.29 154.343 98.0793 150.091L83.8695 164.166C85.3382 165.648 86.695 168.084 87.4406 170.396C87.6106 170.924 87.7247 171.373 87.795 171.723C87.8683 172.088 87.8766 172.258 87.876 172.243C87.8755 172.23 87.8712 172.123 87.8852 171.937C87.8985 171.759 87.9348 171.423 88.0461 170.978C88.215 170.301 88.8754 168.092 91.2148 166.332L103.238 182.314ZM98.0768 150.089C94.2847 146.263 89.9151 143.118 85.0155 141.764C79.6983 140.295 74.1146 141.091 69.531 144.617L81.726 160.469C81.4326 160.695 80.9754 160.926 80.4311 161.021C79.9106 161.111 79.6238 161.024 79.6901 161.042C79.9748 161.121 81.4221 161.696 83.872 164.168L98.0768 150.089ZM69.5313 144.617C62.8319 149.771 62.9398 157.953 64.4752 163.249C66.1349 168.973 70.0141 174.527 75.4305 179.099L88.3306 163.816C85.2635 161.227 84.0253 158.856 83.6841 157.679C83.5145 157.094 83.6559 157.138 83.5491 157.689C83.4234 158.337 82.9545 159.524 81.7257 160.469L69.5313 144.617ZM76.4747 179.87C80.6098 182.527 85.0559 184.284 89.2608 184.991C92.8826 185.601 98.6146 185.793 103.238 182.314L91.2148 166.332C92.3735 165.46 93.3061 165.351 93.3442 165.346C93.4497 165.333 93.2064 165.374 92.5796 165.269C91.3242 165.058 89.3989 164.402 87.2864 163.045L76.4747 179.87ZM133.428 166.332C135.768 168.092 136.428 170.301 136.597 170.978C136.708 171.423 136.745 171.759 136.758 171.937C136.772 172.123 136.768 172.23 136.767 172.244C136.766 172.258 136.775 172.088 136.848 171.723C136.918 171.373 137.033 170.924 137.203 170.396C137.948 168.084 139.305 165.648 140.774 164.166L126.564 150.091C122.353 154.343 119.613 159.774 118.167 164.26C117.439 166.52 116.885 169.009 116.784 171.41C116.735 172.59 116.776 174.155 117.193 175.823C117.574 177.348 118.58 180.189 121.405 182.314L133.428 166.332ZM140.771 164.168C143.221 161.696 144.668 161.121 144.953 161.042C145.019 161.024 144.732 161.111 144.212 161.021C143.668 160.926 143.211 160.695 142.917 160.469L155.112 144.617C150.529 141.091 144.945 140.295 139.628 141.764C134.728 143.118 130.358 146.263 126.566 150.089L140.771 164.168ZM142.917 160.469C141.689 159.524 141.22 158.337 141.094 157.689C140.987 157.138 141.129 157.094 140.959 157.679C140.618 158.856 139.38 161.227 136.312 163.816L149.213 179.099C154.629 174.527 158.508 168.973 160.168 163.249C161.703 157.953 161.811 149.771 155.112 144.617L142.917 160.469ZM137.357 163.045C135.244 164.402 133.319 165.058 132.064 165.269C131.437 165.374 131.193 165.333 131.299 165.346C131.337 165.351 132.27 165.46 133.428 166.332L121.405 182.314C126.028 185.793 131.76 185.601 135.382 184.991C139.587 184.284 144.033 182.527 148.168 179.87L137.357 163.045ZM115.743 148.253C115.724 148.245 116.017 148.376 116.376 148.73C116.733 149.081 116.878 149.38 116.877 149.379C116.848 149.316 116.71 148.986 116.502 148.137C116.295 147.284 116.087 146.208 115.815 144.684L96.1251 148.191C96.6261 151.004 97.2752 154.658 98.7428 157.813C100.565 161.732 103.509 164.74 107.76 166.591L115.743 148.253ZM115.594 143.722C114.845 141.064 114.339 139.027 114.034 137.421C113.723 135.784 113.689 134.934 113.705 134.571C113.717 134.294 113.741 134.714 113.375 135.371C112.997 136.049 112.573 136.325 112.645 136.277L101.608 119.598C99.4655 121.016 97.3978 122.953 95.9002 125.643C94.4136 128.313 93.8384 131.097 93.7245 133.694C93.5188 138.385 94.8165 143.733 96.3461 149.153L115.594 143.722ZM97.2286 129.363C98.1243 135.583 99.8371 139.58 102.932 145.37L120.571 135.942C118.031 131.191 117.457 129.519 117.024 126.512L97.2286 129.363ZM120.695 145.129C124.215 138.091 125.872 133.668 125.798 127.81L105.799 128.065C105.808 128.782 105.763 129.234 105.5 130.077C105.151 131.196 104.429 132.941 102.808 136.183L120.695 145.129ZM110.492 136.413C110.701 136.544 110.336 136.358 109.964 135.749C109.586 135.13 109.58 134.698 109.595 134.9C109.617 135.205 109.612 136.003 109.335 137.605C109.063 139.178 108.593 141.187 107.879 143.829L127.187 149.046C128.646 143.646 129.895 138.218 129.54 133.425C129.343 130.754 128.641 127.954 127.025 125.312C125.416 122.682 123.273 120.819 121.105 119.462L110.492 136.413ZM107.734 144.443C107.424 145.965 107.165 147.063 106.926 147.891C106.687 148.72 106.521 149.088 106.463 149.203C106.429 149.27 106.511 149.097 106.743 148.861C106.973 148.628 107.139 148.549 107.056 148.593L116.448 166.251C119.885 164.422 122.492 161.821 124.306 158.237C125.838 155.213 126.662 151.724 127.332 148.432L107.734 144.443Z" fill="#0B010B"/>
<path d="M177.723 159.928C165.736 171.94 179.499 232 113.351 232C47.2018 232 60.0764 171.94 48.0897 159.928C36.103 147.916 -8.73618 130.79 18.7888 90.0802C21.1702 86.5581 25.4481 82.9619 28.9997 81.1824C18.7888 96.3086 35.2151 115.439 48.9776 117.663C28.1118 94.0842 48.0897 62.0521 60.0764 48.7054C76.0586 29.5751 96.9244 22.012 93.3728 10C118.678 27.7956 38.3227 76.2886 84.9377 113.659C91.2081 111.145 94.6842 110.119 100.766 109.438L110.594 64.9219L122.734 109.438C130.429 110.264 134.068 111.329 140.078 113.659C186.693 76.2886 107.134 27.7956 132.44 10C128.888 22.012 149.754 29.5751 165.736 48.7054C177.723 62.0521 197.701 94.0842 176.835 117.663C190.597 115.439 207.024 96.3086 196.813 81.1824C200.364 82.9619 204.642 86.5581 207.024 90.0802C234.549 130.79 189.71 147.916 177.723 159.928Z" fill="#F03880"/>
<path d="M100.765 186.906C91.5178 186.328 74.1741 184.016 66.6553 177.656C62.0335 195.578 74.7528 211.766 86.8897 210.609C96.4537 209.516 100.765 204.25 100.765 186.906Z" fill="#0B010B"/>
<path d="M124.404 186.906C133.651 186.328 150.995 184.016 158.513 177.656C163.135 195.578 150.416 211.766 138.279 210.609C128.715 209.516 124.404 204.25 124.404 186.906Z" fill="#0B010B"/>
<path d="M90.9744 157.128C96.6537 162.862 99.1681 172.863 97.2264 174.323C94.6233 176.281 88.1282 175.472 81.8806 171.457C73.397 164.297 71.6457 155.607 75.6285 152.543C79.3408 149.687 84.7323 150.831 90.9744 157.128Z" fill="#0B010B"/>
<path d="M133.669 157.128C127.989 162.862 125.475 172.863 127.417 174.323C130.02 176.281 136.515 175.472 142.763 171.457C151.246 164.297 152.997 155.607 149.015 152.543C145.302 149.687 139.911 150.831 133.669 157.128Z" fill="#0B010B"/>
<path d="M105.97 146.438C107.063 152.577 107.856 155.726 111.752 157.422C115.061 155.661 116.203 152.972 117.533 146.438C120.517 135.394 120.553 130.914 115.798 127.938C115.841 131.315 115.101 133.959 111.752 140.656C108.934 135.385 107.791 132.551 107.127 127.938C102.696 130.869 102.844 135.36 105.97 146.438Z" fill="#0B010B"/>
</svg>
